<svg width="330" height="620" viewBox="0 0 330 620" fill="none" xmlns="http://www.w3.org/2000/svg">
  <rect x="4" y="4" width="322" height="612" rx="48" fill="#171717"/>
  <rect x="11" y="11" width="308" height="598" rx="41" fill="#FFF7F1"/>
  <rect x="117" y="20" width="96" height="25" rx="13" fill="#171717"/>
  <text x="30" y="80" fill="#171717" font-family="Arial" font-size="20" font-weight="700">‹</text><text x="143" y="78" fill="#171717" font-family="Arial" font-size="13" font-weight="700">Round 1</text><text x="128" y="95" fill="#8D8D8D" font-family="Arial" font-size="9">Skull king</text>
  <g font-family="Arial"><rect x="28" y="125" width="274" height="100" rx="18" fill="#FFAC80"/><text x="47" y="154" fill="#171717" font-size="15" font-weight="700">Simon</text><text x="47" y="179" fill="#6B3B25" font-size="11">0 bid</text><rect x="95" y="164" width="49" height="20" rx="10" fill="#FFD1B7"/><text x="110" y="178" fill="#D96700" font-size="13">− +</text><text x="203" y="179" fill="#6B3B25" font-size="11">0 fold</text><rect x="249" y="164" width="35" height="20" rx="10" fill="#FF7B00"/><text x="256" y="178" fill="white" font-size="11" font-weight="700">Opt</text>
  <rect x="28" y="239" width="274" height="100" rx="18" fill="#ABD2F3"/><text x="47" y="268" fill="#171717" font-size="15" font-weight="700">Tanguy</text><text x="47" y="293" fill="#315878" font-size="11">0 bid</text><rect x="95" y="278" width="49" height="20" rx="10" fill="#D6EBFB"/><text x="110" y="292" fill="#4788BE" font-size="13">− +</text><text x="203" y="293" fill="#315878" font-size="11">0 fold</text><rect x="249" y="278" width="35" height="20" rx="10" fill="#4788BE"/><text x="256" y="292" fill="white" font-size="11" font-weight="700">Opt</text>
  <rect x="28" y="353" width="274" height="100" rx="18" fill="#BFE4BE"/><text x="47" y="382" fill="#171717" font-size="15" font-weight="700">Lucie</text><text x="47" y="407" fill="#396539" font-size="11">0 bid</text><rect x="95" y="392" width="49" height="20" rx="10" fill="#DDF0DD"/><text x="110" y="406" fill="#5F9D60" font-size="13">− +</text><text x="203" y="407" fill="#396539" font-size="11">0 fold</text><rect x="249" y="392" width="35" height="20" rx="10" fill="#5F9D60"/><text x="256" y="406" fill="white" font-size="11" font-weight="700">Opt</text>
  <rect x="28" y="467" width="274" height="100" rx="18" fill="#F3B5CF"/><text x="47" y="496" fill="#171717" font-size="15" font-weight="700">Pauline</text><text x="47" y="521" fill="#87324E" font-size="11">0 bid</text><rect x="95" y="506" width="49" height="20" rx="10" fill="#FAD6E5"/><text x="110" y="520" fill="#D85B8B" font-size="13">− +</text><text x="203" y="521" fill="#87324E" font-size="11">0 fold</text><rect x="249" y="506" width="35" height="20" rx="10" fill="#D85B8B"/><text x="256" y="520" fill="white" font-size="11" font-weight="700">Opt</text></g>
</svg>
